<svg viewBox="0 0 70 70" fill="none" xmlns="http://www.w3.org/2000/svg">
<path d="M62.1455 14.3076L58.29 17.3223C53.0332 10.6025 44.8574 6.28906 35.6768 6.28906C19.8242 6.28906 6.99316 19.1064 6.97265 34.9658C6.95214 50.8389 19.8105 63.7109 35.6768 63.7109C48.0703 63.7109 58.6318 55.8496 62.6514 44.8369C62.7539 44.5498 62.6035 44.2285 62.3164 44.1328L58.4404 42.7998C58.3053 42.7535 58.1574 42.7619 58.0284 42.8232C57.8993 42.8845 57.7994 42.9939 57.75 43.1279C57.6269 43.4697 57.4902 43.8115 57.3467 44.1465C56.1641 46.9492 54.4687 49.4648 52.3086 51.625C50.1659 53.7718 47.6289 55.4847 44.8369 56.6699C41.9453 57.8936 38.8623 58.5156 35.6904 58.5156C32.5117 58.5156 29.4355 57.8936 26.5439 56.6699C23.7492 55.4897 21.2114 53.7761 19.0723 51.625C16.9237 49.4825 15.2126 46.9425 14.0342 44.1465C12.8105 41.248 12.1885 38.1719 12.1885 34.9932C12.1885 31.8145 12.8105 28.7383 14.0342 25.8398C15.2168 23.0371 16.9121 20.5215 19.0723 18.3613C21.2324 16.2012 23.748 14.5059 26.5439 13.3164C29.4355 12.0928 32.5185 11.4707 35.6904 11.4707C38.8691 11.4707 41.9453 12.0928 44.8369 13.3164C47.6316 14.4966 50.1695 16.2102 52.3086 18.3613C52.9853 19.0381 53.6211 19.7559 54.209 20.5078L50.0937 23.7207C50.0123 23.7837 49.9503 23.8684 49.9149 23.965C49.8795 24.0617 49.872 24.1664 49.8935 24.2671C49.9149 24.3678 49.9643 24.4604 50.036 24.5342C50.1077 24.6081 50.1988 24.6602 50.2988 24.6846L62.3027 27.624C62.6445 27.7061 62.9795 27.4463 62.9795 27.0977L63.0342 14.7314C63.0273 14.2803 62.501 14.0273 62.1455 14.3076V14.3076Z" fill="#555555"/>
</svg>
