<svg viewBox="0 0 70 70" fill="none" xmlns="http://www.w3.org/2000/svg">
<path d="M55.4167 32.0833H20.825L31.4125 19.3667C31.9076 18.771 32.1457 18.0031 32.0746 17.2319C32.0035 16.4606 31.629 15.7492 31.0333 15.2542C30.4377 14.7591 29.6698 14.5209 28.8985 14.592C28.1273 14.6631 27.4159 15.0377 26.9208 15.6333L12.3375 33.1333C12.2394 33.2725 12.1516 33.4188 12.075 33.5708C12.075 33.7167 12.075 33.8042 11.8708 33.95C11.7386 34.2844 11.6694 34.6404 11.6667 35C11.6694 35.3596 11.7386 35.7156 11.8708 36.05C11.8708 36.1958 11.8708 36.2833 12.075 36.4292C12.1516 36.5812 12.2394 36.7275 12.3375 36.8667L26.9208 54.3667C27.1951 54.6959 27.5385 54.9607 27.9266 55.1422C28.3148 55.3236 28.7382 55.4174 29.1667 55.4167C29.8481 55.418 30.5086 55.1807 31.0333 54.7458C31.3287 54.501 31.5728 54.2003 31.7517 53.8609C31.9307 53.5216 32.0409 53.1503 32.0761 52.7683C32.1114 52.3862 32.0709 52.001 31.957 51.6347C31.8431 51.2683 31.6581 50.9281 31.4125 50.6333L20.825 37.9167H55.4167C56.1902 37.9167 56.9321 37.6094 57.4791 37.0624C58.026 36.5154 58.3333 35.7735 58.3333 35C58.3333 34.2265 58.026 33.4846 57.4791 32.9376C56.9321 32.3906 56.1902 32.0833 55.4167 32.0833Z" fill="#555555"/>
</svg>
